<svg xmlns="http://www.w3.org/2000/svg" width="172" height="50" viewBox="0 0 172 50">
    <g fill="#FFF" fill-rule="evenodd">
        <path d="M17.37 18.421h-.001c-2.58 0-4.922 1.081-6.62 2.824a9.726 9.726 0 0 0-2.751 6.8v.002a9.724 9.724 0 0 0 2.75 6.797c1.698 1.744 4.041 2.825 6.622 2.825h.001c2.58 0 4.923-1.081 6.62-2.824a9.724 9.724 0 0 0 2.752-6.8v-.001a9.724 9.724 0 0 0-2.751-6.798c-1.698-1.744-4.04-2.825-6.621-2.825zm0-1.806c3.067 0 5.85 1.284 7.866 3.354a11.551 11.551 0 0 1 3.266 8.075v.002a11.55 11.55 0 0 1-3.267 8.076c-2.016 2.07-4.798 3.353-7.864 3.353h-.001c-3.066 0-5.85-1.284-7.865-3.354a11.55 11.55 0 0 1-3.266-8.074v-.003a11.55 11.55 0 0 1 3.266-8.075c2.016-2.07 4.798-3.354 7.864-3.354h.001z"/>
        <path d="M49.35 1.356l-.153.196C39.368 14.025 27.121 24.526 15.83 30.936l.454.5C23.594 39.401 31.696 45.974 38.688 50c-6.504-1.61-16.45-8.512-25.099-17.838-3.76 1.975-7.385 3.47-10.747 4.401a121.447 121.447 0 0 0 9.288-6.16C5.05 20.379.42 9.687 0 3.083c2.677 7.737 7.616 17.032 14.035 25.765l.067.09c9.818-7.43 19.583-16.87 27.93-27.465.365-.462.723-.923 1.077-1.384-3.69 6.345-8.78 13.748-15.443 20.758C35.387 14.855 42.369 8.358 49.35 1.356M66.956 37.538h-1.344l-7.266-20.29H61.3l5.017 14.742 4.83-14.743h2.861l-7.052 20.29M81.643 30.077c-.798-.182-1.357-.273-1.676-.273-1.277 0-2.32.337-3.127 1.011-.807.675-1.211 1.471-1.211 2.391 0 1.521.874 2.282 2.621 2.282 1.278 0 2.409-.624 3.393-1.872v-3.539zm.24 5.507c-1.011 1.303-2.56 1.954-4.644 1.954-1.118 0-2.087-.417-2.907-1.25-.821-.834-1.231-1.87-1.231-3.109 0-1.485.632-2.74 1.896-3.764 1.264-1.025 2.876-1.538 4.837-1.538.532 0 1.135.119 1.81.356 0-2.368-1.03-3.553-3.088-3.553-1.579 0-2.794.437-3.645 1.312l-1.065-2.173c.479-.4 1.142-.745 1.99-1.031.846-.287 1.656-.43 2.428-.43 2.067 0 3.568.482 4.504 1.448.936.965 1.404 2.5 1.404 4.604v5.247c0 1.284.372 2.14 1.117 2.569v1.298c-1.029 0-1.798-.15-2.308-.451-.51-.3-.876-.797-1.098-1.49zM88.35 33.124V16.632h2.529v16.055c0 .784.22 1.4.658 1.851.44.451 1.013.677 1.723.677v2.323c-3.273 0-4.91-1.471-4.91-4.414M98.796 17.097c.434 0 .805.157 1.11.471.307.315.46.69.46 1.127 0 .447-.153.827-.46 1.141a1.494 1.494 0 0 1-1.11.472c-.426 0-.792-.157-1.098-.472a1.575 1.575 0 0 1-.46-1.14c0-.447.152-.825.453-1.134.302-.31.67-.465 1.105-.465zm-1.384 20.167V24.817h-1.956V22.63h4.484v14.634h-2.528zM120.459 37.264v-9.263c0-2.305-.972-3.457-2.914-3.457-.612 0-1.185.193-1.717.58-.532.388-.896.827-1.09 1.319v10.821h-2.53V26.866c0-.72-.263-1.286-.791-1.7-.528-.415-1.227-.622-2.096-.622-.505 0-1.044.2-1.617.6-.572.402-.978.843-1.217 1.326v10.794h-2.528V22.63h1.65l.838 1.695c.976-1.312 2.195-1.968 3.66-1.968 2.04 0 3.468.652 4.284 1.954.284-.555.812-1.02 1.584-1.394a5.41 5.41 0 0 1 2.381-.56c1.473 0 2.613.449 3.42 1.346.807.898 1.211 2.157 1.211 3.778v9.783h-2.528M129.188 17.097c.435 0 .805.157 1.111.471.306.315.46.69.46 1.127 0 .447-.154.827-.46 1.141a1.494 1.494 0 0 1-1.11.472 1.48 1.48 0 0 1-1.099-.472 1.575 1.575 0 0 1-.459-1.14c0-.447.151-.825.453-1.134.301-.31.67-.465 1.104-.465zm-1.384 20.167V24.817h-1.956V22.63h4.485v14.634h-2.529zM133.42 36.39l.891-2.46c1.41.948 2.546 1.421 3.407 1.421 1.56 0 2.342-.674 2.342-2.022 0-.965-.755-1.794-2.263-2.487-1.162-.546-1.944-.96-2.348-1.243a5.257 5.257 0 0 1-1.051-.963 3.855 3.855 0 0 1-.666-1.148 3.82 3.82 0 0 1-.22-1.305c0-1.202.427-2.14 1.278-2.814.852-.675 1.965-1.012 3.34-1.012 1.038 0 2.347.337 3.926 1.012l-.719 2.404c-1.003-.82-2.01-1.23-3.02-1.23-.604 0-1.112.146-1.524.438-.413.292-.619.66-.619 1.107 0 .938.52 1.649 1.557 2.131l1.81.847c1.108.52 1.916 1.112 2.422 1.776.505.666.758 1.5.758 2.5 0 1.313-.448 2.34-1.344 3.082-.896.743-2.138 1.114-3.726 1.114-1.5 0-2.91-.383-4.231-1.148M151.25 24.544c-1.126 0-2.071.373-2.834 1.12-.727.71-1.14 1.594-1.237 2.65h7.89c0-1.047-.319-1.921-.958-2.623-.7-.765-1.654-1.147-2.86-1.147zm6.135 5.656h-10.273c0 1.713.457 3.029 1.37 3.949.808.802 1.846 1.202 3.114 1.202 1.446 0 2.653-.432 3.62-1.298l1.064 1.872c-.39.401-.989.747-1.796 1.039-1.011.382-2.138.574-3.38.574-1.792 0-3.313-.624-4.564-1.872-1.393-1.376-2.09-3.225-2.09-5.548 0-2.414.715-4.35 2.143-5.807 1.278-1.302 2.79-1.954 4.538-1.954 2.031 0 3.623.588 4.777 1.763 1.118 1.13 1.676 2.628 1.676 4.495 0 .574-.066 1.102-.199 1.585zM169.28 26.02c-.638-.985-1.512-1.476-2.62-1.476-1.358 0-2.456.519-3.294 1.557-.838 1.039-1.257 2.36-1.257 3.963 0 3.525 1.56 5.287 4.683 5.287.4 0 .879-.13 1.438-.389.558-.26.909-.535 1.05-.827V26.02zm0 11.23v-1.079c-.877.902-2.155 1.353-3.831 1.353-1.784 0-3.23-.656-4.338-1.968-1.11-1.311-1.664-3.06-1.664-5.246 0-2.195.639-4.07 1.916-5.623 1.278-1.553 2.8-2.33 4.565-2.33 1.472 0 2.59.356 3.353 1.066v-6.79h2.528V37.25h-2.528z"/>
    </g>
</svg>
