<svg width="172" height="50" viewBox="0 0 172 50" fill="none" xmlns="http://www.w3.org/2000/svg">
<path fill-rule="evenodd" clip-rule="evenodd" d="M17.37 18.332H17.369C14.789 18.332 12.447 19.413 10.749 21.156C8.97966 22.9767 7.99237 25.4172 7.99804 27.956V27.958C7.99267 30.4957 8.97957 32.935 10.748 34.755C12.446 36.499 14.789 37.58 17.37 37.58H17.371C19.951 37.58 22.294 36.499 23.991 34.756C25.761 32.9356 26.7487 30.495 26.743 27.956V27.955C26.7484 25.4168 25.7611 22.9771 23.992 21.157C22.294 19.413 19.952 18.332 17.371 18.332H17.37ZM17.37 16.526C20.437 16.526 23.22 17.81 25.236 19.88C27.3368 22.0423 28.5089 24.9403 28.502 27.955V27.957C28.509 30.9722 27.3365 33.8706 25.235 36.033C23.219 38.103 20.437 39.386 17.371 39.386H17.37C14.304 39.386 11.52 38.102 9.50504 36.032C7.40448 33.87 6.23239 30.9724 6.23904 27.958V27.955C6.23213 24.9402 7.40424 22.0423 9.50504 19.88C11.521 17.81 14.303 16.526 17.369 16.526H17.37V16.526Z" fill="#3361BE"/>
<path fill-rule="evenodd" clip-rule="evenodd" d="M49.35 1.267L49.197 1.463C39.368 13.936 27.121 24.437 15.83 30.847L16.284 31.347C23.594 39.312 31.696 45.885 38.688 49.911C32.184 48.301 22.238 41.399 13.589 32.073C9.829 34.048 6.204 35.543 2.842 36.474C6.03063 34.5639 9.1299 32.5084 12.13 30.314C5.05 20.29 0.42 9.598 0 2.994C2.677 10.731 7.616 20.026 14.035 28.759L14.102 28.849C23.92 21.419 33.685 11.979 42.032 1.384C42.397 0.922 42.755 0.461 43.109 0C39.419 6.345 34.329 13.748 27.666 20.758C35.387 14.766 42.369 8.269 49.35 1.267ZM66.956 37.449H65.612L58.346 17.159H61.3L66.317 31.901L71.147 17.158H74.008L66.956 37.448V37.449ZM81.643 29.988C80.845 29.806 80.286 29.715 79.967 29.715C78.69 29.715 77.647 30.052 76.84 30.726C76.033 31.401 75.629 32.197 75.629 33.117C75.629 34.638 76.503 35.399 78.25 35.399C79.528 35.399 80.659 34.775 81.643 33.527V29.988V29.988ZM81.883 35.495C80.872 36.798 79.323 37.449 77.239 37.449C76.121 37.449 75.152 37.032 74.332 36.199C73.511 35.365 73.101 34.329 73.101 33.09C73.101 31.605 73.733 30.35 74.997 29.326C76.261 28.301 77.873 27.788 79.834 27.788C80.366 27.788 80.969 27.907 81.644 28.144C81.644 25.776 80.614 24.591 78.556 24.591C76.977 24.591 75.762 25.028 74.911 25.903L73.846 23.73C74.325 23.33 74.988 22.985 75.836 22.699C76.682 22.412 77.492 22.269 78.264 22.269C80.331 22.269 81.832 22.751 82.768 23.717C83.704 24.682 84.172 26.217 84.172 28.321V33.568C84.172 34.852 84.544 35.708 85.289 36.137V37.435C84.26 37.435 83.491 37.285 82.981 36.984C82.471 36.684 82.105 36.187 81.883 35.494V35.495ZM88.35 33.035V16.543H90.879V32.598C90.879 33.382 91.099 33.998 91.537 34.449C91.977 34.9 92.55 35.126 93.26 35.126V37.449C89.987 37.449 88.35 35.978 88.35 33.035V33.035ZM98.796 17.008C99.23 17.008 99.601 17.165 99.906 17.479C100.213 17.794 100.366 18.169 100.366 18.606C100.366 19.053 100.213 19.433 99.906 19.747C99.7639 19.8985 99.5919 20.0187 99.4007 20.1C99.2096 20.1813 99.0037 20.2218 98.796 20.219C98.37 20.219 98.004 20.062 97.698 19.747C97.5488 19.5975 97.4312 19.4196 97.3522 19.2237C97.2732 19.0279 97.2343 18.8182 97.238 18.607C97.238 18.16 97.39 17.782 97.691 17.473C97.993 17.163 98.361 17.008 98.796 17.008V17.008ZM97.412 37.175V24.728H95.456V22.541H99.94V37.175H97.412V37.175ZM120.459 37.175V27.912C120.459 25.607 119.487 24.455 117.545 24.455C116.933 24.455 116.36 24.648 115.828 25.035C115.296 25.423 114.932 25.862 114.738 26.354V37.175H112.208V26.777C112.208 26.057 111.945 25.491 111.417 25.077C110.889 24.662 110.19 24.455 109.321 24.455C108.816 24.455 108.277 24.655 107.704 25.055C107.132 25.457 106.726 25.898 106.487 26.381V37.175H103.959V22.541H105.609L106.447 24.236C107.423 22.924 108.642 22.268 110.107 22.268C112.147 22.268 113.575 22.92 114.391 24.222C114.675 23.667 115.203 23.202 115.975 22.828C116.716 22.462 117.53 22.2704 118.356 22.268C119.829 22.268 120.969 22.717 121.776 23.614C122.583 24.512 122.987 25.771 122.987 27.392V37.175H120.459V37.175ZM129.188 17.008C129.623 17.008 129.993 17.165 130.299 17.479C130.605 17.794 130.759 18.169 130.759 18.606C130.759 19.053 130.605 19.433 130.299 19.747C130.157 19.8985 129.985 20.0187 129.794 20.1C129.603 20.1813 129.397 20.2218 129.189 20.219C128.983 20.2211 128.779 20.1802 128.59 20.099C128.4 20.0177 128.23 19.8978 128.09 19.747C127.941 19.5974 127.824 19.4195 127.745 19.2236C127.666 19.0278 127.627 18.8181 127.631 18.607C127.631 18.16 127.782 17.782 128.084 17.473C128.385 17.163 128.754 17.008 129.188 17.008V17.008ZM127.804 37.175V24.728H125.848V22.541H130.333V37.175H127.804V37.175ZM133.42 36.301L134.311 33.841C135.721 34.789 136.857 35.262 137.718 35.262C139.278 35.262 140.06 34.588 140.06 33.24C140.06 32.275 139.305 31.446 137.797 30.753C136.635 30.207 135.853 29.793 135.449 29.51C135.057 29.2382 134.703 28.9142 134.398 28.547C134.111 28.2057 133.886 27.8173 133.732 27.399C133.583 26.9801 133.509 26.5385 133.512 26.094C133.512 24.892 133.939 23.954 134.79 23.28C135.642 22.605 136.755 22.268 138.13 22.268C139.168 22.268 140.477 22.605 142.056 23.28L141.337 25.684C140.334 24.864 139.327 24.454 138.317 24.454C137.713 24.454 137.205 24.6 136.793 24.892C136.38 25.184 136.174 25.552 136.174 25.999C136.174 26.937 136.694 27.648 137.731 28.13L139.541 28.977C140.649 29.497 141.457 30.089 141.963 30.753C142.468 31.419 142.721 32.253 142.721 33.253C142.721 34.566 142.273 35.593 141.377 36.335C140.481 37.078 139.239 37.449 137.651 37.449C136.151 37.449 134.741 37.066 133.42 36.301V36.301ZM151.25 24.455C150.124 24.455 149.179 24.828 148.416 25.575C147.689 26.285 147.276 27.169 147.179 28.225H155.069C155.069 27.178 154.75 26.304 154.111 25.602C153.411 24.837 152.457 24.455 151.251 24.455H151.25ZM157.385 30.111H147.112C147.112 31.824 147.569 33.14 148.482 34.06C149.29 34.862 150.328 35.262 151.596 35.262C153.042 35.262 154.249 34.83 155.216 33.964L156.28 35.836C155.89 36.237 155.291 36.583 154.484 36.875C153.473 37.257 152.346 37.449 151.104 37.449C149.312 37.449 147.791 36.825 146.54 35.577C145.147 34.201 144.45 32.352 144.45 30.029C144.45 27.615 145.165 25.679 146.593 24.222C147.871 22.92 149.383 22.268 151.131 22.268C153.162 22.268 154.754 22.856 155.908 24.031C157.026 25.161 157.584 26.659 157.584 28.526C157.584 29.1 157.518 29.628 157.385 30.111V30.111ZM169.28 25.931C168.642 24.946 167.768 24.455 166.66 24.455C165.302 24.455 164.204 24.974 163.366 26.012C162.528 27.051 162.109 28.372 162.109 29.975C162.109 33.5 163.669 35.262 166.792 35.262C167.192 35.262 167.671 35.132 168.23 34.873C168.788 34.613 169.139 34.338 169.28 34.046V25.931V25.931ZM169.28 37.161V36.082C168.403 36.984 167.125 37.435 165.449 37.435C163.665 37.435 162.219 36.779 161.111 35.467C160.001 34.156 159.447 32.407 159.447 30.221C159.447 28.026 160.086 26.151 161.363 24.598C162.641 23.045 164.163 22.268 165.928 22.268C167.4 22.268 168.518 22.624 169.281 23.334V16.544H171.809V37.161H169.281H169.28Z" fill="#3361BE"/>
</svg>
